<mxfile host="app.diagrams.net" agent="Mozilla/5.0 (Windows NT 10.0; Win64; x64) AppleWebKit/537.36 (KHTML, like Gecko) Chrome/131.0.0.0 Safari/537.36" version="25.0.1">
  <diagram name="Page-1" id="6KZhEFDoCoIfoyE_KB7H">
    <mxGraphModel dx="2630" dy="1456" grid="1" gridSize="10" guides="1" tooltips="1" connect="1" arrows="1" fold="1" page="1" pageScale="1" pageWidth="827" pageHeight="1169" math="0" shadow="0">
      <root>
        <mxCell id="0" />
        <mxCell id="1" parent="0" />
        <mxCell id="ug1cgZoZZYAnVrPQJlK0-85" value="" style="edgeStyle=orthogonalEdgeStyle;rounded=0;orthogonalLoop=1;jettySize=auto;html=1;" parent="1" source="ug1cgZoZZYAnVrPQJlK0-83" target="ug1cgZoZZYAnVrPQJlK0-84" edge="1">
          <mxGeometry relative="1" as="geometry" />
        </mxCell>
        <mxCell id="ug1cgZoZZYAnVrPQJlK0-83" value="&lt;div&gt;начало&lt;/div&gt;&lt;div&gt;программы&lt;br&gt;&lt;/div&gt;" style="strokeWidth=2;html=1;shape=mxgraph.flowchart.terminator;whiteSpace=wrap;" parent="1" vertex="1">
          <mxGeometry x="370" y="20" width="100" height="60" as="geometry" />
        </mxCell>
        <mxCell id="ug1cgZoZZYAnVrPQJlK0-87" value="" style="edgeStyle=orthogonalEdgeStyle;rounded=0;orthogonalLoop=1;jettySize=auto;html=1;" parent="1" source="ug1cgZoZZYAnVrPQJlK0-84" target="ug1cgZoZZYAnVrPQJlK0-86" edge="1">
          <mxGeometry relative="1" as="geometry" />
        </mxCell>
        <mxCell id="ug1cgZoZZYAnVrPQJlK0-84" value="&lt;div&gt;srand(time(&lt;/div&gt;&lt;div&gt;null))&lt;/div&gt;" style="rounded=1;whiteSpace=wrap;html=1;absoluteArcSize=1;arcSize=14;strokeWidth=2;" parent="1" vertex="1">
          <mxGeometry x="380" y="100" width="80" height="40" as="geometry" />
        </mxCell>
        <mxCell id="ug1cgZoZZYAnVrPQJlK0-91" value="" style="edgeStyle=orthogonalEdgeStyle;rounded=0;orthogonalLoop=1;jettySize=auto;html=1;" parent="1" source="ug1cgZoZZYAnVrPQJlK0-86" target="ug1cgZoZZYAnVrPQJlK0-90" edge="1">
          <mxGeometry relative="1" as="geometry" />
        </mxCell>
        <mxCell id="ug1cgZoZZYAnVrPQJlK0-86" value="&lt;div&gt;вывод&lt;/div&gt;&lt;div&gt;&quot;введите&lt;/div&gt;&lt;div&gt;кол-во&lt;/div&gt;&lt;div&gt;строк&quot;&lt;br&gt;&lt;/div&gt;" style="shape=parallelogram;html=1;strokeWidth=2;perimeter=parallelogramPerimeter;whiteSpace=wrap;rounded=1;arcSize=12;size=0.23;" parent="1" vertex="1">
          <mxGeometry x="365" y="160" width="110" height="70" as="geometry" />
        </mxCell>
        <mxCell id="ug1cgZoZZYAnVrPQJlK0-94" value="" style="edgeStyle=orthogonalEdgeStyle;rounded=0;orthogonalLoop=1;jettySize=auto;html=1;" parent="1" source="ug1cgZoZZYAnVrPQJlK0-89" target="ug1cgZoZZYAnVrPQJlK0-93" edge="1">
          <mxGeometry relative="1" as="geometry" />
        </mxCell>
        <mxCell id="ug1cgZoZZYAnVrPQJlK0-89" value="&lt;div&gt;вывод&lt;/div&gt;&lt;div&gt;&quot;введите&lt;/div&gt;&lt;div&gt;кол-во&lt;/div&gt;&lt;div&gt;столбцов&quot;&lt;br&gt;&lt;/div&gt;" style="shape=parallelogram;html=1;strokeWidth=2;perimeter=parallelogramPerimeter;whiteSpace=wrap;rounded=1;arcSize=12;size=0.23;" parent="1" vertex="1">
          <mxGeometry x="365" y="340" width="110" height="70" as="geometry" />
        </mxCell>
        <mxCell id="ug1cgZoZZYAnVrPQJlK0-92" value="" style="edgeStyle=orthogonalEdgeStyle;rounded=0;orthogonalLoop=1;jettySize=auto;html=1;" parent="1" source="ug1cgZoZZYAnVrPQJlK0-90" target="ug1cgZoZZYAnVrPQJlK0-89" edge="1">
          <mxGeometry relative="1" as="geometry" />
        </mxCell>
        <mxCell id="ug1cgZoZZYAnVrPQJlK0-90" value="&lt;div&gt;получаем&lt;/div&gt;&lt;div&gt;кол-во&lt;/div&gt;&lt;div&gt;строк&lt;br&gt;&lt;/div&gt;" style="shape=parallelogram;html=1;strokeWidth=2;perimeter=parallelogramPerimeter;whiteSpace=wrap;rounded=1;arcSize=12;size=0.23;" parent="1" vertex="1">
          <mxGeometry x="365" y="250" width="110" height="70" as="geometry" />
        </mxCell>
        <mxCell id="ug1cgZoZZYAnVrPQJlK0-96" value="" style="edgeStyle=orthogonalEdgeStyle;rounded=0;orthogonalLoop=1;jettySize=auto;html=1;" parent="1" source="ug1cgZoZZYAnVrPQJlK0-93" target="ug1cgZoZZYAnVrPQJlK0-95" edge="1">
          <mxGeometry relative="1" as="geometry" />
        </mxCell>
        <mxCell id="ug1cgZoZZYAnVrPQJlK0-93" value="&lt;div&gt;получаем&lt;/div&gt;&lt;div&gt;кол-во&lt;/div&gt;&lt;div&gt;столбцов&lt;br&gt;&lt;/div&gt;" style="shape=parallelogram;html=1;strokeWidth=2;perimeter=parallelogramPerimeter;whiteSpace=wrap;rounded=1;arcSize=12;size=0.23;" parent="1" vertex="1">
          <mxGeometry x="365" y="430" width="110" height="70" as="geometry" />
        </mxCell>
        <mxCell id="ug1cgZoZZYAnVrPQJlK0-98" value="" style="edgeStyle=orthogonalEdgeStyle;rounded=0;orthogonalLoop=1;jettySize=auto;html=1;" parent="1" source="ug1cgZoZZYAnVrPQJlK0-95" target="ug1cgZoZZYAnVrPQJlK0-97" edge="1">
          <mxGeometry relative="1" as="geometry" />
        </mxCell>
        <mxCell id="ug1cgZoZZYAnVrPQJlK0-95" value="int array[30][30]" style="rounded=1;whiteSpace=wrap;html=1;absoluteArcSize=1;arcSize=14;strokeWidth=2;" parent="1" vertex="1">
          <mxGeometry x="375" y="520" width="90" height="40" as="geometry" />
        </mxCell>
        <mxCell id="ug1cgZoZZYAnVrPQJlK0-100" value="" style="edgeStyle=orthogonalEdgeStyle;rounded=0;orthogonalLoop=1;jettySize=auto;html=1;" parent="1" source="ug1cgZoZZYAnVrPQJlK0-97" target="ug1cgZoZZYAnVrPQJlK0-99" edge="1">
          <mxGeometry relative="1" as="geometry" />
        </mxCell>
        <mxCell id="ug1cgZoZZYAnVrPQJlK0-97" value="&lt;div&gt;вывод&lt;/div&gt;&lt;div&gt;&quot;матрица % &lt;br&gt;&lt;/div&gt;&lt;div&gt;на %:&quot;, m,n&lt;br&gt;&lt;/div&gt;" style="shape=parallelogram;html=1;strokeWidth=2;perimeter=parallelogramPerimeter;whiteSpace=wrap;rounded=1;arcSize=12;size=0.23;" parent="1" vertex="1">
          <mxGeometry x="355" y="580" width="130" height="60" as="geometry" />
        </mxCell>
        <mxCell id="qffzdBO7LKgghT683G-L-5" style="edgeStyle=orthogonalEdgeStyle;rounded=0;orthogonalLoop=1;jettySize=auto;html=1;" parent="1" source="ug1cgZoZZYAnVrPQJlK0-99" target="qffzdBO7LKgghT683G-L-4" edge="1">
          <mxGeometry relative="1" as="geometry">
            <Array as="points">
              <mxPoint x="560" y="690" />
              <mxPoint x="560" y="1285" />
            </Array>
          </mxGeometry>
        </mxCell>
        <mxCell id="qffzdBO7LKgghT683G-L-8" style="edgeStyle=orthogonalEdgeStyle;rounded=0;orthogonalLoop=1;jettySize=auto;html=1;" parent="1" source="ug1cgZoZZYAnVrPQJlK0-99" target="ug1cgZoZZYAnVrPQJlK0-104" edge="1">
          <mxGeometry relative="1" as="geometry" />
        </mxCell>
        <mxCell id="ug1cgZoZZYAnVrPQJlK0-99" value="" style="verticalLabelPosition=bottom;verticalAlign=top;html=1;shape=hexagon;perimeter=hexagonPerimeter2;arcSize=6;size=0.27;" parent="1" vertex="1">
          <mxGeometry x="370" y="660" width="100" height="60" as="geometry" />
        </mxCell>
        <mxCell id="ug1cgZoZZYAnVrPQJlK0-101" value="i = 0; i &amp;lt; m; i++" style="text;strokeColor=none;align=center;fillColor=none;html=1;verticalAlign=middle;whiteSpace=wrap;rounded=0;" parent="1" vertex="1">
          <mxGeometry x="390" y="675" width="60" height="30" as="geometry" />
        </mxCell>
        <mxCell id="qffzdBO7LKgghT683G-L-2" style="edgeStyle=orthogonalEdgeStyle;rounded=0;orthogonalLoop=1;jettySize=auto;html=1;" parent="1" source="ug1cgZoZZYAnVrPQJlK0-104" target="qffzdBO7LKgghT683G-L-1" edge="1">
          <mxGeometry relative="1" as="geometry">
            <Array as="points">
              <mxPoint x="520" y="840" />
              <mxPoint x="520" y="1135" />
            </Array>
          </mxGeometry>
        </mxCell>
        <mxCell id="qffzdBO7LKgghT683G-L-3" style="edgeStyle=orthogonalEdgeStyle;rounded=0;orthogonalLoop=1;jettySize=auto;html=1;" parent="1" source="ug1cgZoZZYAnVrPQJlK0-104" target="ug1cgZoZZYAnVrPQJlK0-109" edge="1">
          <mxGeometry relative="1" as="geometry" />
        </mxCell>
        <mxCell id="ug1cgZoZZYAnVrPQJlK0-104" value="" style="verticalLabelPosition=bottom;verticalAlign=top;html=1;shape=hexagon;perimeter=hexagonPerimeter2;arcSize=6;size=0.27;" parent="1" vertex="1">
          <mxGeometry x="370" y="810" width="100" height="60" as="geometry" />
        </mxCell>
        <mxCell id="ug1cgZoZZYAnVrPQJlK0-105" value="i = 0; i &amp;lt; j; i++" style="text;strokeColor=none;align=center;fillColor=none;html=1;verticalAlign=middle;whiteSpace=wrap;rounded=0;" parent="1" vertex="1">
          <mxGeometry x="390" y="825" width="60" height="30" as="geometry" />
        </mxCell>
        <mxCell id="ug1cgZoZZYAnVrPQJlK0-113" value="" style="edgeStyle=orthogonalEdgeStyle;rounded=0;orthogonalLoop=1;jettySize=auto;html=1;" parent="1" source="ug1cgZoZZYAnVrPQJlK0-109" target="ug1cgZoZZYAnVrPQJlK0-112" edge="1">
          <mxGeometry relative="1" as="geometry" />
        </mxCell>
        <mxCell id="ug1cgZoZZYAnVrPQJlK0-109" value="&lt;div&gt;array[i][j] = rand()&lt;/div&gt;&lt;div&gt;% 30 + 1&lt;br&gt;&lt;/div&gt;" style="rounded=1;whiteSpace=wrap;html=1;absoluteArcSize=1;arcSize=14;strokeWidth=2;" parent="1" vertex="1">
          <mxGeometry x="367.5" y="910" width="105" height="50" as="geometry" />
        </mxCell>
        <mxCell id="qffzdBO7LKgghT683G-L-6" style="edgeStyle=orthogonalEdgeStyle;rounded=0;orthogonalLoop=1;jettySize=auto;html=1;" parent="1" source="ug1cgZoZZYAnVrPQJlK0-112" target="ug1cgZoZZYAnVrPQJlK0-104" edge="1">
          <mxGeometry relative="1" as="geometry">
            <Array as="points">
              <mxPoint x="320" y="1009.9999999999998" />
              <mxPoint x="320" y="840" />
            </Array>
          </mxGeometry>
        </mxCell>
        <mxCell id="ug1cgZoZZYAnVrPQJlK0-112" value="вывод&lt;br&gt;array[i][j]" style="shape=parallelogram;html=1;strokeWidth=2;perimeter=parallelogramPerimeter;whiteSpace=wrap;rounded=1;arcSize=12;size=0.23;" parent="1" vertex="1">
          <mxGeometry x="370" y="980" width="100" height="60" as="geometry" />
        </mxCell>
        <mxCell id="qffzdBO7LKgghT683G-L-7" style="edgeStyle=orthogonalEdgeStyle;rounded=0;orthogonalLoop=1;jettySize=auto;html=1;" parent="1" source="ug1cgZoZZYAnVrPQJlK0-116" target="ug1cgZoZZYAnVrPQJlK0-99" edge="1">
          <mxGeometry relative="1" as="geometry">
            <Array as="points">
              <mxPoint x="280" y="1210" />
              <mxPoint x="280" y="690" />
            </Array>
          </mxGeometry>
        </mxCell>
        <mxCell id="ug1cgZoZZYAnVrPQJlK0-116" value="&lt;div&gt;переход&lt;/div&gt;&lt;div&gt;на новую&lt;/div&gt;&lt;div&gt;строку \n&lt;br&gt;&lt;/div&gt;" style="shape=parallelogram;html=1;strokeWidth=2;perimeter=parallelogramPerimeter;whiteSpace=wrap;rounded=1;arcSize=12;size=0.23;" parent="1" vertex="1">
          <mxGeometry x="363.75" y="1180" width="112.5" height="60" as="geometry" />
        </mxCell>
        <mxCell id="ug1cgZoZZYAnVrPQJlK0-122" value="" style="edgeStyle=orthogonalEdgeStyle;rounded=0;orthogonalLoop=1;jettySize=auto;html=1;" parent="1" target="ug1cgZoZZYAnVrPQJlK0-120" edge="1">
          <mxGeometry relative="1" as="geometry">
            <mxPoint x="420" y="1310" as="sourcePoint" />
          </mxGeometry>
        </mxCell>
        <mxCell id="ug1cgZoZZYAnVrPQJlK0-124" value="" style="edgeStyle=orthogonalEdgeStyle;rounded=0;orthogonalLoop=1;jettySize=auto;html=1;" parent="1" source="ug1cgZoZZYAnVrPQJlK0-120" edge="1">
          <mxGeometry relative="1" as="geometry">
            <mxPoint x="420" y="1400" as="targetPoint" />
          </mxGeometry>
        </mxCell>
        <mxCell id="ug1cgZoZZYAnVrPQJlK0-120" value="&lt;div&gt;row = find_&lt;/div&gt;&lt;div&gt;duple(array, m, n)&lt;br&gt;&lt;/div&gt;" style="rounded=1;whiteSpace=wrap;html=1;absoluteArcSize=1;arcSize=14;strokeWidth=2;" parent="1" vertex="1">
          <mxGeometry x="365" y="1330" width="110" height="50" as="geometry" />
        </mxCell>
        <mxCell id="tD8eushjtXtifP8V6kET-13" style="edgeStyle=orthogonalEdgeStyle;rounded=0;orthogonalLoop=1;jettySize=auto;html=1;" edge="1" parent="1" source="ug1cgZoZZYAnVrPQJlK0-127" target="qffzdBO7LKgghT683G-L-14">
          <mxGeometry relative="1" as="geometry">
            <Array as="points">
              <mxPoint x="300" y="1648" />
            </Array>
          </mxGeometry>
        </mxCell>
        <mxCell id="ug1cgZoZZYAnVrPQJlK0-127" value="&lt;div&gt;вывод&lt;/div&gt;&lt;div&gt;row&lt;br&gt;&lt;/div&gt;" style="shape=parallelogram;html=1;strokeWidth=2;perimeter=parallelogramPerimeter;whiteSpace=wrap;rounded=1;arcSize=12;size=0.23;" parent="1" vertex="1">
          <mxGeometry x="250" y="1470" width="100" height="60" as="geometry" />
        </mxCell>
        <mxCell id="ug1cgZoZZYAnVrPQJlK0-129" value="return 0;" style="rounded=1;whiteSpace=wrap;html=1;absoluteArcSize=1;arcSize=14;strokeWidth=2;" parent="1" vertex="1">
          <mxGeometry x="367.5" y="1700" width="100" height="30" as="geometry" />
        </mxCell>
        <mxCell id="ug1cgZoZZYAnVrPQJlK0-132" value="false" style="text;strokeColor=none;align=center;fillColor=none;html=1;verticalAlign=middle;whiteSpace=wrap;rounded=0;" parent="1" vertex="1">
          <mxGeometry x="467.5" y="1400" width="60" height="30" as="geometry" />
        </mxCell>
        <mxCell id="ug1cgZoZZYAnVrPQJlK0-137" style="edgeStyle=orthogonalEdgeStyle;rounded=0;orthogonalLoop=1;jettySize=auto;html=1;entryX=0.5;entryY=0;entryDx=0;entryDy=0;" parent="1" source="ug1cgZoZZYAnVrPQJlK0-135" target="ug1cgZoZZYAnVrPQJlK0-136" edge="1">
          <mxGeometry relative="1" as="geometry" />
        </mxCell>
        <mxCell id="ug1cgZoZZYAnVrPQJlK0-135" value="find_duple(array[][30], int ,m, int n)" style="rounded=1;whiteSpace=wrap;html=1;absoluteArcSize=1;arcSize=14;strokeWidth=2;" parent="1" vertex="1">
          <mxGeometry x="985" y="82" width="140" height="50" as="geometry" />
        </mxCell>
        <mxCell id="ug1cgZoZZYAnVrPQJlK0-141" style="edgeStyle=orthogonalEdgeStyle;rounded=0;orthogonalLoop=1;jettySize=auto;html=1;" parent="1" source="ug1cgZoZZYAnVrPQJlK0-136" target="ug1cgZoZZYAnVrPQJlK0-138" edge="1">
          <mxGeometry relative="1" as="geometry" />
        </mxCell>
        <mxCell id="ug1cgZoZZYAnVrPQJlK0-136" value="&lt;div&gt;maximum_count = 0;&lt;/div&gt;&lt;div&gt;index = -1;&lt;br&gt;&lt;/div&gt;" style="rounded=1;whiteSpace=wrap;html=1;absoluteArcSize=1;arcSize=14;strokeWidth=2;" parent="1" vertex="1">
          <mxGeometry x="1000" y="152" width="110" height="50" as="geometry" />
        </mxCell>
        <mxCell id="qffzdBO7LKgghT683G-L-62" style="edgeStyle=orthogonalEdgeStyle;rounded=0;orthogonalLoop=1;jettySize=auto;html=1;" parent="1" source="ug1cgZoZZYAnVrPQJlK0-138" target="qffzdBO7LKgghT683G-L-54" edge="1">
          <mxGeometry relative="1" as="geometry">
            <Array as="points">
              <mxPoint x="1400" y="252" />
              <mxPoint x="1400" y="1683" />
            </Array>
          </mxGeometry>
        </mxCell>
        <mxCell id="ug1cgZoZZYAnVrPQJlK0-138" value="" style="verticalLabelPosition=bottom;verticalAlign=top;html=1;shape=hexagon;perimeter=hexagonPerimeter2;arcSize=6;size=0.27;" parent="1" vertex="1">
          <mxGeometry x="1005" y="222" width="100" height="60" as="geometry" />
        </mxCell>
        <mxCell id="ug1cgZoZZYAnVrPQJlK0-142" value="i = 0; i &amp;lt;m; i++" style="text;strokeColor=none;align=center;fillColor=none;html=1;verticalAlign=middle;whiteSpace=wrap;rounded=0;" parent="1" vertex="1">
          <mxGeometry x="1025" y="237" width="60" height="30" as="geometry" />
        </mxCell>
        <mxCell id="ug1cgZoZZYAnVrPQJlK0-144" style="edgeStyle=orthogonalEdgeStyle;rounded=0;orthogonalLoop=1;jettySize=auto;html=1;entryX=0.5;entryY=0;entryDx=0;entryDy=0;entryPerimeter=0;" parent="1" source="ug1cgZoZZYAnVrPQJlK0-138" edge="1">
          <mxGeometry relative="1" as="geometry">
            <mxPoint x="1055" y="307" as="targetPoint" />
          </mxGeometry>
        </mxCell>
        <mxCell id="ug1cgZoZZYAnVrPQJlK0-150" style="edgeStyle=orthogonalEdgeStyle;rounded=0;orthogonalLoop=1;jettySize=auto;html=1;entryX=0.5;entryY=0;entryDx=0;entryDy=0;" parent="1" source="ug1cgZoZZYAnVrPQJlK0-145" target="ug1cgZoZZYAnVrPQJlK0-148" edge="1">
          <mxGeometry relative="1" as="geometry" />
        </mxCell>
        <mxCell id="ug1cgZoZZYAnVrPQJlK0-145" value="&lt;font style=&quot;font-size: 9px;&quot;&gt;current_maximum = 0&lt;br&gt;&lt;/font&gt;" style="rounded=1;whiteSpace=wrap;html=1;absoluteArcSize=1;arcSize=14;strokeWidth=2;" parent="1" vertex="1">
          <mxGeometry x="1005" y="312" width="100" height="40" as="geometry" />
        </mxCell>
        <mxCell id="qffzdBO7LKgghT683G-L-18" style="edgeStyle=orthogonalEdgeStyle;rounded=0;orthogonalLoop=1;jettySize=auto;html=1;" parent="1" source="ug1cgZoZZYAnVrPQJlK0-148" target="ug1cgZoZZYAnVrPQJlK0-153" edge="1">
          <mxGeometry relative="1" as="geometry" />
        </mxCell>
        <mxCell id="qffzdBO7LKgghT683G-L-41" style="edgeStyle=orthogonalEdgeStyle;rounded=0;orthogonalLoop=1;jettySize=auto;html=1;" parent="1" source="ug1cgZoZZYAnVrPQJlK0-148" target="qffzdBO7LKgghT683G-L-32" edge="1">
          <mxGeometry relative="1" as="geometry">
            <Array as="points">
              <mxPoint x="1320" y="402" />
              <mxPoint x="1320" y="1121.9999999999998" />
            </Array>
          </mxGeometry>
        </mxCell>
        <mxCell id="ug1cgZoZZYAnVrPQJlK0-148" value="" style="verticalLabelPosition=bottom;verticalAlign=top;html=1;shape=hexagon;perimeter=hexagonPerimeter2;arcSize=6;size=0.27;" parent="1" vertex="1">
          <mxGeometry x="1005" y="372" width="100" height="60" as="geometry" />
        </mxCell>
        <mxCell id="ug1cgZoZZYAnVrPQJlK0-149" value="j = 0; j &amp;lt;n; j++" style="text;strokeColor=none;align=center;fillColor=none;html=1;verticalAlign=middle;whiteSpace=wrap;rounded=0;" parent="1" vertex="1">
          <mxGeometry x="1025" y="387" width="60" height="30" as="geometry" />
        </mxCell>
        <mxCell id="qffzdBO7LKgghT683G-L-19" style="edgeStyle=orthogonalEdgeStyle;rounded=0;orthogonalLoop=1;jettySize=auto;html=1;entryX=0.5;entryY=0;entryDx=0;entryDy=0;" parent="1" source="ug1cgZoZZYAnVrPQJlK0-153" target="ug1cgZoZZYAnVrPQJlK0-155" edge="1">
          <mxGeometry relative="1" as="geometry" />
        </mxCell>
        <mxCell id="ug1cgZoZZYAnVrPQJlK0-153" value="count = 0;" style="rounded=1;whiteSpace=wrap;html=1;absoluteArcSize=1;arcSize=14;strokeWidth=2;" parent="1" vertex="1">
          <mxGeometry x="1005" y="462" width="100" height="40" as="geometry" />
        </mxCell>
        <mxCell id="qffzdBO7LKgghT683G-L-27" style="edgeStyle=orthogonalEdgeStyle;rounded=0;orthogonalLoop=1;jettySize=auto;html=1;" parent="1" source="ug1cgZoZZYAnVrPQJlK0-155" target="qffzdBO7LKgghT683G-L-24" edge="1">
          <mxGeometry relative="1" as="geometry">
            <Array as="points">
              <mxPoint x="1250" y="552" />
              <mxPoint x="1250" y="832" />
            </Array>
          </mxGeometry>
        </mxCell>
        <mxCell id="ug1cgZoZZYAnVrPQJlK0-155" value="" style="verticalLabelPosition=bottom;verticalAlign=top;html=1;shape=hexagon;perimeter=hexagonPerimeter2;arcSize=6;size=0.27;" parent="1" vertex="1">
          <mxGeometry x="1005" y="522" width="100" height="60" as="geometry" />
        </mxCell>
        <mxCell id="ug1cgZoZZYAnVrPQJlK0-156" value="&lt;div&gt;f = 0; f &amp;lt;n;&lt;/div&gt;&lt;div&gt;f++&lt;br&gt;&lt;/div&gt;" style="text;strokeColor=none;align=center;fillColor=none;html=1;verticalAlign=middle;whiteSpace=wrap;rounded=0;" parent="1" vertex="1">
          <mxGeometry x="1025" y="537" width="60" height="30" as="geometry" />
        </mxCell>
        <mxCell id="tD8eushjtXtifP8V6kET-1" style="edgeStyle=orthogonalEdgeStyle;rounded=0;orthogonalLoop=1;jettySize=auto;html=1;entryX=0.5;entryY=0;entryDx=0;entryDy=0;" edge="1" parent="1" source="ug1cgZoZZYAnVrPQJlK0-165" target="qffzdBO7LKgghT683G-L-23">
          <mxGeometry relative="1" as="geometry" />
        </mxCell>
        <mxCell id="ug1cgZoZZYAnVrPQJlK0-165" value="count++" style="rounded=1;whiteSpace=wrap;html=1;absoluteArcSize=1;arcSize=14;strokeWidth=2;" parent="1" vertex="1">
          <mxGeometry x="900" y="707" width="60" height="30" as="geometry" />
        </mxCell>
        <mxCell id="ug1cgZoZZYAnVrPQJlK0-166" value="true" style="text;strokeColor=none;align=center;fillColor=none;html=1;verticalAlign=middle;whiteSpace=wrap;rounded=0;" parent="1" vertex="1">
          <mxGeometry x="950" y="617" width="60" height="30" as="geometry" />
        </mxCell>
        <mxCell id="ug1cgZoZZYAnVrPQJlK0-171" value="false" style="text;strokeColor=none;align=center;fillColor=none;html=1;verticalAlign=middle;whiteSpace=wrap;rounded=0;" parent="1" vertex="1">
          <mxGeometry x="1120" y="617" width="60" height="30" as="geometry" />
        </mxCell>
        <mxCell id="tD8eushjtXtifP8V6kET-4" style="edgeStyle=orthogonalEdgeStyle;rounded=0;orthogonalLoop=1;jettySize=auto;html=1;entryX=0.5;entryY=0;entryDx=0;entryDy=0;" edge="1" parent="1" source="ug1cgZoZZYAnVrPQJlK0-175" target="qffzdBO7LKgghT683G-L-33">
          <mxGeometry relative="1" as="geometry" />
        </mxCell>
        <mxCell id="ug1cgZoZZYAnVrPQJlK0-175" value="&lt;div&gt;current_&lt;/div&gt;&lt;div&gt;maximum = count&lt;/div&gt;" style="rounded=1;whiteSpace=wrap;html=1;absoluteArcSize=1;arcSize=14;strokeWidth=2;" parent="1" vertex="1">
          <mxGeometry x="900" y="960" width="70" height="51" as="geometry" />
        </mxCell>
        <mxCell id="tD8eushjtXtifP8V6kET-6" style="edgeStyle=orthogonalEdgeStyle;rounded=0;orthogonalLoop=1;jettySize=auto;html=1;" edge="1" parent="1" source="ug1cgZoZZYAnVrPQJlK0-186" target="qffzdBO7LKgghT683G-L-44">
          <mxGeometry relative="1" as="geometry">
            <Array as="points">
              <mxPoint x="950" y="1410" />
            </Array>
          </mxGeometry>
        </mxCell>
        <mxCell id="ug1cgZoZZYAnVrPQJlK0-186" value="&lt;div&gt;maximum_&lt;/div&gt;&lt;div&gt;count = current_&lt;/div&gt;&lt;div&gt;maximum;&lt;/div&gt;&lt;div&gt;index = i;&lt;br&gt;&lt;/div&gt;" style="rounded=1;whiteSpace=wrap;html=1;absoluteArcSize=1;arcSize=14;strokeWidth=2;" parent="1" vertex="1">
          <mxGeometry x="895" y="1280" width="110" height="60" as="geometry" />
        </mxCell>
        <mxCell id="ug1cgZoZZYAnVrPQJlK0-191" value="true" style="text;strokeColor=none;align=center;fillColor=none;html=1;verticalAlign=middle;whiteSpace=wrap;rounded=0;" parent="1" vertex="1">
          <mxGeometry x="900" y="1171" width="60" height="30" as="geometry" />
        </mxCell>
        <mxCell id="ug1cgZoZZYAnVrPQJlK0-192" value="false" style="text;strokeColor=none;align=center;fillColor=none;html=1;verticalAlign=middle;whiteSpace=wrap;rounded=0;" parent="1" vertex="1">
          <mxGeometry x="1145" y="1171" width="60" height="30" as="geometry" />
        </mxCell>
        <mxCell id="tD8eushjtXtifP8V6kET-9" style="edgeStyle=orthogonalEdgeStyle;rounded=0;orthogonalLoop=1;jettySize=auto;html=1;entryX=0.5;entryY=0;entryDx=0;entryDy=0;" edge="1" parent="1" source="ug1cgZoZZYAnVrPQJlK0-199" target="qffzdBO7LKgghT683G-L-52">
          <mxGeometry relative="1" as="geometry" />
        </mxCell>
        <mxCell id="ug1cgZoZZYAnVrPQJlK0-199" value="index = i;" style="rounded=1;whiteSpace=wrap;html=1;absoluteArcSize=1;arcSize=14;strokeWidth=2;" parent="1" vertex="1">
          <mxGeometry x="920" y="1572" width="60" height="20" as="geometry" />
        </mxCell>
        <mxCell id="ug1cgZoZZYAnVrPQJlK0-207" style="edgeStyle=orthogonalEdgeStyle;rounded=0;orthogonalLoop=1;jettySize=auto;html=1;" parent="1" source="ug1cgZoZZYAnVrPQJlK0-203" target="ug1cgZoZZYAnVrPQJlK0-206" edge="1">
          <mxGeometry relative="1" as="geometry" />
        </mxCell>
        <mxCell id="ug1cgZoZZYAnVrPQJlK0-203" value="return index;" style="rounded=1;whiteSpace=wrap;html=1;absoluteArcSize=1;arcSize=14;strokeWidth=2;" parent="1" vertex="1">
          <mxGeometry x="1005" y="1730" width="100" height="30" as="geometry" />
        </mxCell>
        <mxCell id="ug1cgZoZZYAnVrPQJlK0-206" value="конец find_duple" style="strokeWidth=2;html=1;shape=mxgraph.flowchart.terminator;whiteSpace=wrap;" parent="1" vertex="1">
          <mxGeometry x="1005" y="1785" width="100" height="60" as="geometry" />
        </mxCell>
        <mxCell id="ug1cgZoZZYAnVrPQJlK0-209" style="edgeStyle=orthogonalEdgeStyle;rounded=0;orthogonalLoop=1;jettySize=auto;html=1;" parent="1" source="ug1cgZoZZYAnVrPQJlK0-208" target="ug1cgZoZZYAnVrPQJlK0-135" edge="1">
          <mxGeometry relative="1" as="geometry" />
        </mxCell>
        <mxCell id="ug1cgZoZZYAnVrPQJlK0-208" value="&lt;div&gt;начало&lt;/div&gt;&lt;div&gt;find_duple&lt;br&gt;&lt;/div&gt;" style="strokeWidth=2;html=1;shape=mxgraph.flowchart.terminator;whiteSpace=wrap;" parent="1" vertex="1">
          <mxGeometry x="1005" y="22" width="100" height="40" as="geometry" />
        </mxCell>
        <mxCell id="qffzdBO7LKgghT683G-L-9" style="edgeStyle=orthogonalEdgeStyle;rounded=0;orthogonalLoop=1;jettySize=auto;html=1;entryX=0.5;entryY=0;entryDx=0;entryDy=0;" parent="1" source="qffzdBO7LKgghT683G-L-1" target="ug1cgZoZZYAnVrPQJlK0-116" edge="1">
          <mxGeometry relative="1" as="geometry" />
        </mxCell>
        <mxCell id="qffzdBO7LKgghT683G-L-1" value="для все" style="rounded=1;whiteSpace=wrap;html=1;absoluteArcSize=1;arcSize=14;strokeWidth=2;" parent="1" vertex="1">
          <mxGeometry x="370" y="1110" width="100" height="50" as="geometry" />
        </mxCell>
        <mxCell id="qffzdBO7LKgghT683G-L-4" value="для все" style="rounded=1;whiteSpace=wrap;html=1;absoluteArcSize=1;arcSize=14;strokeWidth=2;" parent="1" vertex="1">
          <mxGeometry x="370" y="1260" width="100" height="50" as="geometry" />
        </mxCell>
        <mxCell id="qffzdBO7LKgghT683G-L-12" style="edgeStyle=orthogonalEdgeStyle;rounded=0;orthogonalLoop=1;jettySize=auto;html=1;entryX=0.5;entryY=0;entryDx=0;entryDy=0;" parent="1" source="qffzdBO7LKgghT683G-L-10" target="ug1cgZoZZYAnVrPQJlK0-127" edge="1">
          <mxGeometry relative="1" as="geometry" />
        </mxCell>
        <mxCell id="qffzdBO7LKgghT683G-L-15" style="edgeStyle=orthogonalEdgeStyle;rounded=0;orthogonalLoop=1;jettySize=auto;html=1;" parent="1" source="qffzdBO7LKgghT683G-L-10" target="qffzdBO7LKgghT683G-L-14" edge="1">
          <mxGeometry relative="1" as="geometry">
            <Array as="points">
              <mxPoint x="520" y="1435" />
              <mxPoint x="520" y="1648" />
            </Array>
          </mxGeometry>
        </mxCell>
        <mxCell id="qffzdBO7LKgghT683G-L-10" value="if row != -1" style="strokeWidth=2;html=1;shape=mxgraph.flowchart.decision;whiteSpace=wrap;" parent="1" vertex="1">
          <mxGeometry x="367.5" y="1400" width="100" height="70" as="geometry" />
        </mxCell>
        <mxCell id="qffzdBO7LKgghT683G-L-13" value="true" style="text;strokeColor=none;align=center;fillColor=none;html=1;verticalAlign=middle;whiteSpace=wrap;rounded=0;" parent="1" vertex="1">
          <mxGeometry x="270" y="1400" width="60" height="30" as="geometry" />
        </mxCell>
        <mxCell id="qffzdBO7LKgghT683G-L-22" style="edgeStyle=orthogonalEdgeStyle;rounded=0;orthogonalLoop=1;jettySize=auto;html=1;entryX=0.5;entryY=0;entryDx=0;entryDy=0;" parent="1" source="qffzdBO7LKgghT683G-L-20" target="ug1cgZoZZYAnVrPQJlK0-165" edge="1">
          <mxGeometry relative="1" as="geometry" />
        </mxCell>
        <mxCell id="qffzdBO7LKgghT683G-L-25" style="edgeStyle=orthogonalEdgeStyle;rounded=0;orthogonalLoop=1;jettySize=auto;html=1;" parent="1" source="qffzdBO7LKgghT683G-L-20" target="qffzdBO7LKgghT683G-L-23" edge="1">
          <mxGeometry relative="1" as="geometry">
            <Array as="points">
              <mxPoint x="1150" y="652" />
            </Array>
          </mxGeometry>
        </mxCell>
        <mxCell id="qffzdBO7LKgghT683G-L-20" value="if array[i][j]&lt;div&gt;== array[i][f]&lt;/div&gt;" style="strokeWidth=2;html=1;shape=mxgraph.flowchart.decision;whiteSpace=wrap;" parent="1" vertex="1">
          <mxGeometry x="1000" y="612" width="110" height="80" as="geometry" />
        </mxCell>
        <mxCell id="qffzdBO7LKgghT683G-L-21" style="edgeStyle=orthogonalEdgeStyle;rounded=0;orthogonalLoop=1;jettySize=auto;html=1;entryX=0.5;entryY=0;entryDx=0;entryDy=0;entryPerimeter=0;" parent="1" source="ug1cgZoZZYAnVrPQJlK0-155" target="qffzdBO7LKgghT683G-L-20" edge="1">
          <mxGeometry relative="1" as="geometry" />
        </mxCell>
        <mxCell id="tD8eushjtXtifP8V6kET-2" style="edgeStyle=orthogonalEdgeStyle;rounded=0;orthogonalLoop=1;jettySize=auto;html=1;" edge="1" parent="1" source="qffzdBO7LKgghT683G-L-23" target="ug1cgZoZZYAnVrPQJlK0-155">
          <mxGeometry relative="1" as="geometry">
            <Array as="points">
              <mxPoint x="860" y="780" />
              <mxPoint x="860" y="552" />
            </Array>
          </mxGeometry>
        </mxCell>
        <mxCell id="qffzdBO7LKgghT683G-L-23" value="если все" style="rounded=1;whiteSpace=wrap;html=1;absoluteArcSize=1;arcSize=14;strokeWidth=2;" parent="1" vertex="1">
          <mxGeometry x="885" y="760" width="90" height="40" as="geometry" />
        </mxCell>
        <mxCell id="qffzdBO7LKgghT683G-L-24" value="для все" style="rounded=1;whiteSpace=wrap;html=1;absoluteArcSize=1;arcSize=14;strokeWidth=2;" parent="1" vertex="1">
          <mxGeometry x="1010" y="812" width="90" height="40" as="geometry" />
        </mxCell>
        <mxCell id="tD8eushjtXtifP8V6kET-3" style="edgeStyle=orthogonalEdgeStyle;rounded=0;orthogonalLoop=1;jettySize=auto;html=1;entryX=0.5;entryY=0;entryDx=0;entryDy=0;" edge="1" parent="1" source="qffzdBO7LKgghT683G-L-30" target="ug1cgZoZZYAnVrPQJlK0-175">
          <mxGeometry relative="1" as="geometry" />
        </mxCell>
        <mxCell id="qffzdBO7LKgghT683G-L-30" value="if count&lt;div&gt;&amp;gt; current_&lt;/div&gt;&lt;div&gt;maximum&lt;/div&gt;" style="strokeWidth=2;html=1;shape=mxgraph.flowchart.decision;whiteSpace=wrap;" parent="1" vertex="1">
          <mxGeometry x="1005" y="872" width="100" height="100" as="geometry" />
        </mxCell>
        <mxCell id="qffzdBO7LKgghT683G-L-31" style="edgeStyle=orthogonalEdgeStyle;rounded=0;orthogonalLoop=1;jettySize=auto;html=1;entryX=0.5;entryY=0;entryDx=0;entryDy=0;entryPerimeter=0;" parent="1" source="qffzdBO7LKgghT683G-L-24" target="qffzdBO7LKgghT683G-L-30" edge="1">
          <mxGeometry relative="1" as="geometry" />
        </mxCell>
        <mxCell id="qffzdBO7LKgghT683G-L-32" value="для все" style="rounded=1;whiteSpace=wrap;html=1;absoluteArcSize=1;arcSize=14;strokeWidth=2;" parent="1" vertex="1">
          <mxGeometry x="1010" y="1102" width="90" height="40" as="geometry" />
        </mxCell>
        <mxCell id="tD8eushjtXtifP8V6kET-5" style="edgeStyle=orthogonalEdgeStyle;rounded=0;orthogonalLoop=1;jettySize=auto;html=1;entryX=0;entryY=0.5;entryDx=0;entryDy=0;" edge="1" parent="1" source="qffzdBO7LKgghT683G-L-33" target="ug1cgZoZZYAnVrPQJlK0-148">
          <mxGeometry relative="1" as="geometry">
            <Array as="points">
              <mxPoint x="800" y="1050" />
              <mxPoint x="800" y="402" />
            </Array>
          </mxGeometry>
        </mxCell>
        <mxCell id="qffzdBO7LKgghT683G-L-33" value="если все" style="rounded=1;whiteSpace=wrap;html=1;absoluteArcSize=1;arcSize=14;strokeWidth=2;" parent="1" vertex="1">
          <mxGeometry x="890" y="1030" width="90" height="40" as="geometry" />
        </mxCell>
        <mxCell id="qffzdBO7LKgghT683G-L-35" style="edgeStyle=orthogonalEdgeStyle;rounded=0;orthogonalLoop=1;jettySize=auto;html=1;" parent="1" source="qffzdBO7LKgghT683G-L-30" target="qffzdBO7LKgghT683G-L-33" edge="1">
          <mxGeometry relative="1" as="geometry">
            <Array as="points">
              <mxPoint x="1145" y="922" />
            </Array>
          </mxGeometry>
        </mxCell>
        <mxCell id="qffzdBO7LKgghT683G-L-45" style="edgeStyle=orthogonalEdgeStyle;rounded=0;orthogonalLoop=1;jettySize=auto;html=1;entryX=0.5;entryY=0;entryDx=0;entryDy=0;" parent="1" source="qffzdBO7LKgghT683G-L-42" target="ug1cgZoZZYAnVrPQJlK0-186" edge="1">
          <mxGeometry relative="1" as="geometry">
            <Array as="points">
              <mxPoint x="950" y="1212" />
            </Array>
          </mxGeometry>
        </mxCell>
        <mxCell id="tD8eushjtXtifP8V6kET-7" style="edgeStyle=orthogonalEdgeStyle;rounded=0;orthogonalLoop=1;jettySize=auto;html=1;" edge="1" parent="1" source="qffzdBO7LKgghT683G-L-42" target="qffzdBO7LKgghT683G-L-44">
          <mxGeometry relative="1" as="geometry">
            <Array as="points">
              <mxPoint x="1180" y="1212" />
              <mxPoint x="1180" y="1410" />
            </Array>
          </mxGeometry>
        </mxCell>
        <mxCell id="qffzdBO7LKgghT683G-L-42" value="if current_&lt;div&gt;maximum &amp;gt;&lt;/div&gt;&lt;div&gt;maximum_count&lt;/div&gt;" style="strokeWidth=2;html=1;shape=mxgraph.flowchart.decision;whiteSpace=wrap;" parent="1" vertex="1">
          <mxGeometry x="965" y="1162" width="180" height="100" as="geometry" />
        </mxCell>
        <mxCell id="qffzdBO7LKgghT683G-L-43" style="edgeStyle=orthogonalEdgeStyle;rounded=0;orthogonalLoop=1;jettySize=auto;html=1;entryX=0.5;entryY=0;entryDx=0;entryDy=0;entryPerimeter=0;" parent="1" source="qffzdBO7LKgghT683G-L-32" target="qffzdBO7LKgghT683G-L-42" edge="1">
          <mxGeometry relative="1" as="geometry" />
        </mxCell>
        <mxCell id="qffzdBO7LKgghT683G-L-44" value="если все" style="rounded=1;whiteSpace=wrap;html=1;absoluteArcSize=1;arcSize=14;strokeWidth=2;" parent="1" vertex="1">
          <mxGeometry x="1010" y="1390" width="90" height="40" as="geometry" />
        </mxCell>
        <mxCell id="qffzdBO7LKgghT683G-L-51" style="edgeStyle=orthogonalEdgeStyle;rounded=0;orthogonalLoop=1;jettySize=auto;html=1;entryX=0.5;entryY=0;entryDx=0;entryDy=0;" parent="1" target="ug1cgZoZZYAnVrPQJlK0-199" edge="1">
          <mxGeometry relative="1" as="geometry">
            <mxPoint x="1055.034482758621" y="1512" as="sourcePoint" />
            <Array as="points">
              <mxPoint x="950" y="1502" />
            </Array>
          </mxGeometry>
        </mxCell>
        <mxCell id="tD8eushjtXtifP8V6kET-10" style="edgeStyle=orthogonalEdgeStyle;rounded=0;orthogonalLoop=1;jettySize=auto;html=1;" edge="1" parent="1" source="qffzdBO7LKgghT683G-L-47" target="qffzdBO7LKgghT683G-L-52">
          <mxGeometry relative="1" as="geometry">
            <Array as="points">
              <mxPoint x="1180" y="1502" />
              <mxPoint x="1180" y="1630" />
            </Array>
          </mxGeometry>
        </mxCell>
        <mxCell id="qffzdBO7LKgghT683G-L-47" value="if current_&lt;div&gt;maximum&lt;/div&gt;&lt;div&gt;== maximum&lt;br&gt;_count&lt;/div&gt;" style="strokeWidth=2;html=1;shape=mxgraph.flowchart.decision;whiteSpace=wrap;" parent="1" vertex="1">
          <mxGeometry x="975" y="1452" width="160" height="100" as="geometry" />
        </mxCell>
        <mxCell id="qffzdBO7LKgghT683G-L-50" value="true" style="text;strokeColor=none;align=center;fillColor=none;html=1;verticalAlign=middle;whiteSpace=wrap;rounded=0;" parent="1" vertex="1">
          <mxGeometry x="900" y="1412" width="60" height="30" as="geometry" />
        </mxCell>
        <mxCell id="tD8eushjtXtifP8V6kET-11" style="edgeStyle=orthogonalEdgeStyle;rounded=0;orthogonalLoop=1;jettySize=auto;html=1;entryX=0;entryY=0.5;entryDx=0;entryDy=0;" edge="1" parent="1" source="qffzdBO7LKgghT683G-L-52" target="ug1cgZoZZYAnVrPQJlK0-138">
          <mxGeometry relative="1" as="geometry">
            <Array as="points">
              <mxPoint x="760" y="1630" />
              <mxPoint x="760" y="252" />
            </Array>
          </mxGeometry>
        </mxCell>
        <mxCell id="qffzdBO7LKgghT683G-L-52" value="если все" style="rounded=1;whiteSpace=wrap;html=1;absoluteArcSize=1;arcSize=14;strokeWidth=2;" parent="1" vertex="1">
          <mxGeometry x="905" y="1610" width="90" height="40" as="geometry" />
        </mxCell>
        <mxCell id="qffzdBO7LKgghT683G-L-63" style="edgeStyle=orthogonalEdgeStyle;rounded=0;orthogonalLoop=1;jettySize=auto;html=1;entryX=0.5;entryY=0;entryDx=0;entryDy=0;" parent="1" source="qffzdBO7LKgghT683G-L-54" target="ug1cgZoZZYAnVrPQJlK0-203" edge="1">
          <mxGeometry relative="1" as="geometry" />
        </mxCell>
        <mxCell id="qffzdBO7LKgghT683G-L-54" value="для все" style="rounded=1;whiteSpace=wrap;html=1;absoluteArcSize=1;arcSize=14;strokeWidth=2;" parent="1" vertex="1">
          <mxGeometry x="1010" y="1663" width="90" height="40" as="geometry" />
        </mxCell>
        <mxCell id="qffzdBO7LKgghT683G-L-65" value="конец" style="strokeWidth=2;html=1;shape=mxgraph.flowchart.terminator;whiteSpace=wrap;" parent="1" vertex="1">
          <mxGeometry x="367.5" y="1770" width="100" height="60" as="geometry" />
        </mxCell>
        <mxCell id="qffzdBO7LKgghT683G-L-66" style="edgeStyle=orthogonalEdgeStyle;rounded=0;orthogonalLoop=1;jettySize=auto;html=1;entryX=0.5;entryY=0;entryDx=0;entryDy=0;entryPerimeter=0;" parent="1" source="ug1cgZoZZYAnVrPQJlK0-129" target="qffzdBO7LKgghT683G-L-65" edge="1">
          <mxGeometry relative="1" as="geometry" />
        </mxCell>
        <mxCell id="tD8eushjtXtifP8V6kET-8" style="edgeStyle=orthogonalEdgeStyle;rounded=0;orthogonalLoop=1;jettySize=auto;html=1;entryX=0.5;entryY=0;entryDx=0;entryDy=0;entryPerimeter=0;" edge="1" parent="1" source="qffzdBO7LKgghT683G-L-44" target="qffzdBO7LKgghT683G-L-47">
          <mxGeometry relative="1" as="geometry" />
        </mxCell>
        <mxCell id="tD8eushjtXtifP8V6kET-14" style="edgeStyle=orthogonalEdgeStyle;rounded=0;orthogonalLoop=1;jettySize=auto;html=1;entryX=0.5;entryY=0;entryDx=0;entryDy=0;" edge="1" parent="1" source="qffzdBO7LKgghT683G-L-14" target="ug1cgZoZZYAnVrPQJlK0-129">
          <mxGeometry relative="1" as="geometry" />
        </mxCell>
        <mxCell id="qffzdBO7LKgghT683G-L-14" value="если все" style="rounded=1;whiteSpace=wrap;html=1;absoluteArcSize=1;arcSize=14;strokeWidth=2;" parent="1" vertex="1">
          <mxGeometry x="372.5" y="1633" width="90" height="30" as="geometry" />
        </mxCell>
      </root>
    </mxGraphModel>
  </diagram>
</mxfile>
